<svg id='Sports_Car_Convertible_3_24' width='24' height='24' viewBox='0 0 24 24' xmlns='http://www.w3.org/2000/svg' xmlns:xlink='http://www.w3.org/1999/xlink'><rect width='24' height='24' stroke='none' fill='#000000' opacity='0'/>


<g transform="matrix(0.83 0 0 0.83 12 12)" >
<g style="" >
<g transform="matrix(1 0 0 1 0 0.5)" >
<path style="stroke: rgb(0,0,0); stroke-width: 1; stroke-dasharray: none; stroke-linecap: round; stroke-dashoffset: 0; stroke-linejoin: round; stroke-miterlimit: 4; fill: none; fill-rule: nonzero; opacity: 1;" transform=" translate(-12, -12.5)" d="M 2.5 15 L 1.3 14.1 C 0.7963883146671152 13.722291236000336 0.5000000000000002 13.129514606666106 0.5000000000000002 12.5 L 0.5 10 L 17 10 C 19.291128840544452 9.994718833234376 21.484413842955078 10.928193073014677 23.068999999999996 12.582999999999997 C 23.486394854971767 12.977864935467851 23.620148530110352 13.587671112078752 23.406338209206435 14.120983336665716 C 23.192527888302518 14.65429556125268 22.67456836967475 15.002823258442977 22.1 15 L 19.5 15" stroke-linecap="round" />
</g>
<g transform="matrix(1 0 0 1 -1 3)" >
<path style="stroke: rgb(0,0,0); stroke-width: 1; stroke-dasharray: none; stroke-linecap: round; stroke-dashoffset: 0; stroke-linejoin: round; stroke-miterlimit: 4; fill: none; fill-rule: nonzero; opacity: 1;" transform=" translate(-11, -15)" d="M 15.5 15 L 6.5 15" stroke-linecap="round" />
</g>
<g transform="matrix(1 0 0 1 -7.5 3)" >
<path style="stroke: rgb(0,0,0); stroke-width: 1; stroke-dasharray: none; stroke-linecap: round; stroke-dashoffset: 0; stroke-linejoin: round; stroke-miterlimit: 4; fill: none; fill-rule: nonzero; opacity: 1;" transform=" translate(-4.5, -15)" d="M 2.5 15 C 2.5 16.104569499661586 3.395430500338413 17 4.5 17 C 5.6045694996615865 17 6.5 16.104569499661586 6.5 15 C 6.5 13.895430500338414 5.6045694996615865 13 4.5 13 C 3.395430500338413 13 2.5 13.895430500338414 2.5 15 Z" stroke-linecap="round" />
</g>
<g transform="matrix(1 0 0 1 5.5 3)" >
<path style="stroke: rgb(0,0,0); stroke-width: 1; stroke-dasharray: none; stroke-linecap: round; stroke-dashoffset: 0; stroke-linejoin: round; stroke-miterlimit: 4; fill: none; fill-rule: nonzero; opacity: 1;" transform=" translate(-17.5, -15)" d="M 15.5 15 C 15.5 16.104569499661586 16.395430500338414 17 17.5 17 C 18.604569499661586 17 19.5 16.104569499661586 19.5 15 C 19.5 13.895430500338414 18.604569499661586 13 17.5 13 C 16.395430500338414 13 15.5 13.895430500338414 15.5 15 Z" stroke-linecap="round" />
</g>
<g transform="matrix(1 0 0 1 3 -3.5)" >
<path style="stroke: rgb(0,0,0); stroke-width: 1; stroke-dasharray: none; stroke-linecap: round; stroke-dashoffset: 0; stroke-linejoin: round; stroke-miterlimit: 4; fill: none; fill-rule: nonzero; opacity: 1;" transform=" translate(-15, -8.5)" d="M 13.5 7 L 16.5 10" stroke-linecap="round" />
</g>
<g transform="matrix(1 0 0 1 -7.5 -3.5)" >
<path style="stroke: rgb(0,0,0); stroke-width: 1; stroke-dasharray: none; stroke-linecap: round; stroke-dashoffset: 0; stroke-linejoin: round; stroke-miterlimit: 4; fill: none; fill-rule: nonzero; opacity: 1;" transform=" translate(-4.5, -8.5)" d="M 0.5 10 L 7.343 7.067 C 7.4464123651650205 7.022990591230318 7.557612711043326 7.000206422502958 7.67 7 C 7.89021106187272 6.999734204824887 8.10147927690104 7.087095025963395 8.257192125468823 7.242807874531177 C 8.412904974036605 7.39852072309896 8.500265795175114 7.60978893812728 8.5 7.83 L 8.5 10" stroke-linecap="round" />
</g>
<g transform="matrix(1 0 0 1 -2 0.5)" >
<path style="stroke: rgb(0,0,0); stroke-width: 1; stroke-dasharray: none; stroke-linecap: round; stroke-dashoffset: 0; stroke-linejoin: round; stroke-miterlimit: 4; fill: none; fill-rule: nonzero; opacity: 1;" transform=" translate(-10, -12.5)" d="M 9.5 10 L 9.5 12 C 9.499924201247342 12.657476236562347 9.6529662096349 13.305936111027746 9.947 13.894 L 10.5 15" stroke-linecap="round" />
</g>
<g transform="matrix(1 0 0 1 0 0)" >
<path style="stroke: rgb(0,0,0); stroke-width: 1; stroke-dasharray: none; stroke-linecap: round; stroke-dashoffset: 0; stroke-linejoin: round; stroke-miterlimit: 4; fill: none; fill-rule: nonzero; opacity: 1;" transform=" translate(-12, -12)" d="M 12.5 12 L 11.5 12" stroke-linecap="round" />
</g>
</g>
</g>
</svg>